Simulation
nRows=32
nColumns=15
endheader
time  TH_x TH_y TH_z SC_y  SC_z  SC_x  AC_y  AC_z  AC_x  GH_y  GH_z  GH_yy  EL_x  PS_y
0.75  0.000000  0.000000  0.000000  -34.107902667179005  2.667042594278112  20.069046886099677  60.91171094356942  1.206855092351213  -12.322507408940131  20.750225932165776  29.098806893753487  -17.43155861548595  19.956642867873725  0.000000
0.765  0.000000  0.000000  0.000000  -34.28332342812942  2.8225413657989735  20.327379440156665  60.999505886794495  1.565247789507784  -12.239332606507102  20.825017386873462  29.607889411864925  -17.766430223936656  19.754867730866906  0.000000
0.78  0.000000  0.000000  0.000000  -34.466228296574755  2.981597004069821  20.59113761401018  61.08441924778924  1.9192894995241907  -12.14921911255041  20.906686271800762  30.101437010797138  -18.100122166028715  19.552363173535664  0.000000
0.7949999999999999  0.000000  0.000000  0.000000  -34.65734615624623  3.1434304729191838  20.86071614129656  61.167733901668655  2.267769400519262  -12.051520581478172  20.994719829478083  30.579349878171147  -18.43256555535828  19.349594786942987  0.000000
0.8099999999999999  0.000000  0.000000  0.000000  -34.85718428053823  3.307179230040625  21.13630239067943  61.25113494993601  2.609256210735014  -11.945721237926756  21.08828241105068  31.041908472525584  -18.763838425444252  19.146829514677584  0.000000
0.825  0.000000  0.000000  0.000000  -35.06626778545838  3.472041224581205  21.41836284861804  61.33626640940886  2.942160728174423  -11.831231828118735  21.186648476629806  31.489190292026468  -19.093817775690848  18.94439406166922  0.000000
0.84  0.000000  0.000000  0.000000  -35.285041113282674  3.637231665706314  21.70717284409863  61.42496669018609  3.2646824930774834  -11.707521930165473  21.2888483149183  31.921594683993895  -19.422377986671492  18.74260299619846  0.000000
0.855  0.000000  0.000000  0.000000  -35.513931246566514  3.801844547167585  22.00321235395478  61.51902620563549  3.575066593504544  -11.574170837353195  21.393992939270372  32.339322491054496  -19.74927774617048  18.54178107826041  0.000000
0.87  0.000000  0.000000  0.000000  -35.75323245435334  3.964952865782775  22.30662592914061  61.620138068615645  3.8716378614574167  -11.430950999318338  21.50106366830363  32.74284174859162  -20.074149500321113  18.342329394739526  0.000000
0.885  0.000000  0.000000  0.000000  -36.00316537527796  4.125650902651097  22.61753575553681  61.72985039432882  4.153022087003112  -11.277936174497398  21.60923759532624  33.13236485474466  -20.39657430388541  18.14483395801919  0.000000
0.8999999999999999  0.000000  0.000000  0.000000  -36.26359457530568  4.282984764957436  22.935634577520766  61.84926456827784  4.418232346913228  -11.115535039315741  21.717736498783182  33.508249661362186  -20.71590834504744  17.949927902449733  0.000000
0.9149999999999999  0.000000  0.000000  0.000000  -36.533989843793464  4.436020179985856  23.260522970169195  61.978821984649116  4.666826369340546  -10.944514469291738  21.82620041444039  33.87048261227684  -21.031428058548123  17.75835563757412  0.000000
0.9299999999999999  0.000000  0.000000  0.000000  -36.81338065010811  4.58381246765357  23.59097154973715  62.11842684660068  4.899011283238735  -10.765987779708926  21.934328715220175  34.219344643950116  -21.342324624656307  17.57090416760718  0.000000
0.945  0.000000  0.000000  0.000000  -37.10064728250115  4.725389589024693  23.925748911262207  62.26727178600355  5.115544629452757  -10.581408981269284  22.042173243696958  34.55475901196396  -21.647648780008936  17.388635603605312  0.000000
0.96  0.000000  0.000000  0.000000  -37.39434938051358  4.860253883014579  24.26335222653219  62.4240488876852  5.317171994557665  -10.392475866489258  22.14968258480695  34.87690783922445  -21.946420544347372  17.212378557958527  0.000000
0.975  0.000000  0.000000  0.000000  -37.69234953289434  4.988045008443979  24.60192801735899  62.586768691449734  5.505531194272047  -10.200935574571051  22.25632501261325  35.18538297789871  -22.23764222583025  17.042986585346398  0.000000
0.99  0.000000  0.000000  0.000000  -37.992222278394784  5.108340811690427  24.939613627175163  62.75345449235279  5.68218699822726  -10.008746129887532  22.360916932754  35.480065844278236  -22.520106232269974  16.88141297357153  0.000000
1.005  0.000000  0.000000  0.000000  -38.29258101797822  5.220840818393176  25.27550377033397  62.92315847292322  5.847739995360657  -9.817117021002831  22.4628124848443  35.76108247498187  -22.792898272216526  16.727610836718313  0.000000
1.02  0.000000  0.000000  0.000000  -38.59167419495604  5.325354481972275  25.608340510425126  63.09489691079462  6.002780810949989  -9.627413176562543  22.561035377002234  36.02901541337313  -23.05511289700098  16.58201494197613  0.000000
1.035  0.000000  0.000000  0.000000  -38.8873027267723  5.421749505000193  25.93704104217956  63.267214756468846  6.148411566948738  -9.441151678683047  22.654491142590523  36.28373193917864  -23.30556745828437  16.44571595418323  0.000000
1.05  0.000000  0.000000  0.000000  -39.17790772441786  5.510220839943123  26.26035593547599  63.43918739977372  6.2850261926132  -9.259092498106819  22.74222760523529  36.525928556148635  -23.543248910764223  16.3189652010918  0.000000
1.065  0.000000  0.000000  0.000000  -39.46235484802962  5.591003137397115  26.577279863658365  63.610111178446466  6.413069398149012  -9.081732821883453  22.823615116863014  36.75600861247741  -23.7674229134761  16.202093071581665  0.000000
1.08  0.000000  0.000000  0.000000  -39.739196253646156  5.664536553265343  26.886588237517874  63.77879605448041  6.53266950265472  -8.90987094413591  22.897542916990865  36.974785829047576  -23.97728235442866  16.09572517704582  0.000000
1.095  0.000000  0.000000  0.000000  -40.00733409465773  5.731398004898092  27.187455477369518  63.944177940398994  6.643806339334386  -8.744005327433623  22.962681001362814  37.18260027100595  -24.172270919543628  15.999924025448857  0.000000
1.1099999999999999  0.000000  0.000000  0.000000  -40.265676595549344  5.792139236935428  27.478774369924036  64.10515431746008  6.746138220663327  -8.584840306689417  23.01700681552853  37.380367316364676  -24.3519722184292  15.914647214520146  0.000000
1.125  0.000000  0.000000  0.000000  -40.51348328819767  5.847439101409666  27.75978602130903  64.26044307433266  6.839785663888108  -8.432800418646233  23.058776399383344  37.56811202706005  -24.515953461006056  15.83994390043116  0.000000
1.14  0.000000  0.000000  0.000000  -40.75011536527515  5.89817342405513  28.029430127268387  64.40898694191081  6.9246881889555505  -8.288271693814142  23.08657029147961  37.746599974504974  -24.663961548724565  15.775524952783263  0.000000
1.155  0.000000  0.000000  0.000000  -40.9752280939601  5.944641167154929  28.28720339337693  64.55010403645849  7.001323472894037  -8.15144546372622  23.099866685702455  37.916070877795086  -24.79594288121481  15.720971950876184  0.000000
1.17  0.000000  0.000000  0.000000  -41.18813647795033  5.987637839731804  28.532362772754155  64.68309507841587  7.069639136886712  -8.022838674355148  23.09841061966222  38.077484232474426  -24.91201050444895  15.676345004217572  0.000000
1.185  0.000000  0.000000  0.000000  -41.3885517899772  6.027359410746368  28.764682581740573  64.80741744928356  7.130003570120256  -7.902593969601462  23.082730270795253  38.23114975594138  -25.012575358363623  15.641690544092183  0.000000
1.2  0.000000  0.000000  0.000000  -41.576323749187104  6.0638061696455035  28.98325092926735  64.92237120193641  7.182680215953739  -7.790651537493333  23.053461355012985  38.37833404552479  -25.098030284519403  15.616899775573703  0.000000
1.2149999999999999  0.000000  0.000000  0.000000  -41.75114505397908  6.097943910018189  29.187074447321883  65.02761533860125  7.228915347386199  -7.687139801163159  23.011215301904812  38.51864283609884  -25.16940010226366  15.60217583280061  0.000000
